# xmcd
#
# Track frame offsets:
#	150
#	31865
#	47505
#
# Disc length: 860 seconds
#
# Revision: 1
# Processed by: cddbd v1.5PL3 Copyright (c) Steve Scherf et al.
# Submitted via: CDex 1.50Beta5
#
DISCID=18035a03
DTITLE=氣志團 - 恋人／Love Balladeは歌えない
DYEAR=2002
DGENRE=Rock
TTITLE0=恋人
TTITLE1=Love Balladeは歌えない
TTITLE2=ビー・バップ・パラダイス
EXTD=
EXTT0=
EXTT1=
EXTT2=
PLAYORDER=
